<svg xmlns="http://www.w3.org/2000/svg" xmlns:xlink="http://www.w3.org/1999/xlink" width="709" height="753"><defs><path id="a" d="M.099.01h115.596V55H.1z"/><path id="c" d="M.314.01H115.91V55H.314z"/></defs><g fill="none" fill-rule="evenodd" opacity=".05"><path fill="red" d="M403.253 344.108a43.23 43.23 0 0 1 8.503 8.898 42.656 42.656 0 0 1 5.596 10.904l-37.702 11.203 23.603-31.005z"/><path fill="#FFF" d="M412.216 351.696a44.428 44.428 0 0 0-9.702-9.958l-26.677 35.235 42.49-12.822a44.117 44.117 0 0 0-6.111-12.455m-1.927 1.338a41.547 41.547 0 0 1 5.032 9.573l-33.25 10.036 20.877-27.576a41.827 41.827 0 0 1 7.341 7.967"/><path fill="red" d="M418.416 362.02a44.202 44.202 0 0 0-5.693-11.446 43.864 43.864 0 0 0-8.727-9.306l22.111-29.48a80.28 80.28 0 0 1 16.657 17.59 80.878 80.878 0 0 1 10.705 21.788l-35.053 10.855z"/><path fill="#FFF" d="M444.822 328.746a82.977 82.977 0 0 0-18.137-18.875l-23.91 31.872a43.633 43.633 0 0 1 9.554 9.92 43.904 43.904 0 0 1 5.99 12.439l37.907-11.731a83.5 83.5 0 0 0-11.404-23.625m-1.91 1.349a81.176 81.176 0 0 1 10.379 20.734l-33.472 10.36a46.222 46.222 0 0 0-5.578-10.873 45.834 45.834 0 0 0-8.237-8.999l21.113-28.14a80.702 80.702 0 0 1 15.795 16.918"/><path fill="red" d="M602.137 77.323c30.384 23.245 56.928 51.102 78.92 82.827l-30.42 21.656c-19.77-28.5-43.622-53.534-70.92-74.433l22.42-30.05z"/><path fill="#FFF" d="M682.9 160.94c-22.922-33.26-50.284-61.54-80.715-84.658l-23.797 31.883c27.228 20.683 51.708 45.988 72.219 75.746L682.9 160.94zm-3.221-.554l-28.495 20.268c-19.481-27.86-42.865-52.385-69.561-72.962l21-28.13c29.588 22.772 55.491 49.945 77.056 80.824z"/><path fill="red" d="M696.787 277.018c-10.278-32.753-25.56-63.702-45.44-92.017l30.36-21.053c22.135 31.508 39.14 65.947 50.566 102.398l-35.486 10.672z"/><path fill="#FFF" d="M682.98 161.214l-32.284 22.607c20.715 29.586 35.944 61.393 45.949 94.206l37.689-11.524c-11.18-36.673-28.201-72.223-51.354-105.29m-.576 3.233c21.399 30.967 37.882 64.76 49.032 100.52l-33.258 10.168c-10.085-32.274-24.962-62.776-44.262-90.74l28.488-19.948"/><path fill="red" d="M599.165 305.804c-7.019-22.614-17.442-43.979-30.993-63.537l30.389-21.28c15.793 22.76 27.923 47.633 36.078 73.97l-35.474 10.847z"/><path fill="#FFF" d="M598.84 221.082l-32.194 22.544c14.31 20.44 24.832 42.416 31.746 65.084l37.583-11.491c-8.086-26.52-20.394-52.227-37.135-76.137m-.575 3.225c15.138 22.019 26.84 46.01 34.815 71.38l-33.163 10.14c-6.915-21.891-17.016-42.603-30.06-61.626l28.408-19.894"/><path fill="red" d="M539.92 159.547c21.7 16.666 40.67 36.608 56.409 59.306l-30.286 21.607c-13.53-19.487-29.826-36.618-48.453-50.944l22.33-29.969z"/><path fill="#FFF" d="M598.788 220.925c-16.78-24.115-36.786-44.636-59.019-61.43l-23.83 31.746c19.003 14.354 36.105 31.898 50.451 52.512l32.398-22.828zm-3.242-.56l-28.589 20.143c-13.446-18.924-29.502-35.636-47.772-49.723l21.03-28.013c21.185 16.292 39.783 35.648 55.33 57.592z"/><path fill="red" d="M456.214 350.71a84.051 84.051 0 0 0-10.812-22.19l121.038-84.75c13.62 19.609 24.076 41.043 31.091 63.738L456.214 350.71z"/><path fill="#FFF" d="M567.124 242.948l-122.96 86.094a83.527 83.527 0 0 1 11.495 23.592l143.561-43.89c-6.99-22.918-17.628-45.133-32.096-65.796m-.434 2.446c13.211 19.172 23.409 40.076 30.338 62.188l-140.221 42.867a85.316 85.316 0 0 0-10.216-20.967l120.099-84.088"/><path fill="red" d="M516.157 191.555c18.772 14.262 35.198 31.313 48.844 50.707l-120.208 84.42a83.287 83.287 0 0 0-17.01-17.64l88.374-117.487z"/><path fill="#FFF" d="M565.604 243.58c-14.382-20.565-31.522-38.074-50.558-52.408l-89.9 119.384a83.035 83.035 0 0 1 18.133 18.778l122.325-85.753zm-2.432-.424l-119.478 83.759a84.671 84.671 0 0 0-16.116-16.688l87.808-116.607c18.304 14 34.368 30.654 47.786 49.536z"/><path fill="red" d="M578.777 110.527c27.544 20.851 51.627 45.811 71.604 74.21l-50.743 35.562c-16.234-23.052-35.79-43.318-58.148-60.264l37.287-49.508z"/><path fill="#FFF" d="M650.956 183.067c-20.642-29.797-45.264-55.142-72.638-75.87L539.9 158.508c22.185 16.802 42.14 37.343 58.868 61.49l52.188-36.932zm-2.427-.422l-49.33 34.912c-15.924-22.68-35.04-42.65-56.863-59.398l36.317-48.503c26.841 20.55 50.335 45.092 69.876 72.989z"/><path fill="red" d="M636.632 295.437c-8.244-26.731-20.553-51.97-36.603-75.043l50.584-35.424c19.78 28.41 34.941 59.486 45.075 92.409l-59.056 18.058z"/><path fill="#FFF" d="M650.197 183.77l-52.277 36.605c16.872 24.098 29.277 50.007 37.428 76.735l61.029-18.66c-10.055-32.978-25.361-64.946-46.18-94.68m-.433 2.436c19.418 28.042 34.359 58.669 44.427 91.084l-57.686 17.638c-8.225-26.367-20.38-51.288-36.156-74.12l49.415-34.602"/><path fill="red" d="M416.646 364.584a40.026 40.026 0 0 1 1.693 11.664 39.147 39.147 0 0 1-1.813 11.562l-36.876-12.697 36.996-10.53z"/><path fill="#FFF" d="M420.2 376.728a44.19 44.19 0 0 0-1.916-13.695l-42.121 12.994 41.603 14.325a44.303 44.303 0 0 0 2.433-13.624m-2.331-.038a41.68 41.68 0 0 1-1.603 10.668l-32.56-11.211 32.966-10.169a41.62 41.62 0 0 1 1.197 10.712"/><path fill="red" d="M419.885 390.025a44.485 44.485 0 0 0 2.086-12.714 44.498 44.498 0 0 0-1.66-12.781l35.464-10.798a81.38 81.38 0 0 1 3.27 24.253 81.401 81.401 0 0 1-4.079 24.119l-35.08-12.08z"/><path fill="#FFF" d="M459.019 377.809a85.243 85.243 0 0 0-3.517-26.286l-38.007 11.97a44.84 44.84 0 0 1 1.864 13.83 45.287 45.287 0 0 1-2.488 13.779l37.444 12.893a86.063 86.063 0 0 0 4.704-26.186m-2.333-.029a83.599 83.599 0 0 1-3.83 23.205l-33.063-11.384a47.558 47.558 0 0 0 1.9-12.249 47.304 47.304 0 0 0-1.345-12.287l33.56-10.571a82.922 82.922 0 0 1 2.778 23.286"/><path fill="red" d="M733.992 268.676a368.078 368.078 0 0 1 16.677 113.18l-37.488-.834a331.402 331.402 0 0 0-14.987-101.708l35.798-10.638z"/><path fill="#FFF" d="M749.301 382.756c.793-40.136-4.815-78.893-15.833-115.318l-37.276 11.548c9.857 32.592 14.874 67.268 14.165 103.179l38.944.59zm-2.252-2.34l-34.363-.522c.439-33.783-4.148-67.19-13.644-99.382l32.893-10.19c10.542 35.654 15.623 72.667 15.114 110.094z"/><path fill="red" d="M694.834 483.64c11.122-32.597 17.043-66.68 17.606-101.336l37.59.83c-.613 38.569-7.203 76.496-19.592 112.765l-35.604-12.26z"/><path fill="#FFF" d="M751.42 382.555l-38.9-.481c-.813 36.142-7.29 70.885-18.51 103.397l36.722 12.644c12.54-36.335 19.779-75.166 20.688-115.56m-2.348 2.291c-1.077 37.662-7.716 74.753-19.748 110.326l-32.404-11.157c10.842-32.12 16.834-65.598 17.828-99.593l34.324.424"/><path fill="red" d="M597.764 451.273c7.682-22.616 11.886-46.22 12.507-70.189l37.014.516c-.705 27.905-5.6 55.382-14.561 81.71l-34.96-12.037z"/><path fill="#FFF" d="M647.045 381.517l-38.87-.489a235.055 235.055 0 0 1-12.799 71.538l36.697 12.636c9.081-26.312 14.318-54.432 14.972-83.685m-2.347 2.287c-.823 26.777-5.54 53.147-14.037 78.457l-32.38-11.15a237.39 237.39 0 0 0 12.116-67.736l34.3.43"/><path fill="red" d="M634.946 298.03a264.999 264.999 0 0 1 12.004 80.963l-37.369-.857c.164-23.614-3.302-47-10.308-69.546l35.673-10.56z"/><path fill="#FFF" d="M648.464 380.74c.456-29.33-3.811-57.671-12.067-84.326l-37.94 11.475c7.06 22.786 10.708 47.014 10.317 72.084l39.69.767zm-2.308-2.369l-35.024-.675a233.344 233.344 0 0 0-9.764-68.257l33.477-10.124c7.698 25.633 11.5 52.205 11.31 79.056z"/><path fill="red" d="M455.43 403.321a82.013 82.013 0 0 0 4.195-23.96l146.968 3.034c-.423 23.537-4.464 46.688-12.015 68.838L455.43 403.321z"/><path fill="#FFF" d="M608.218 379.782l-148.956-2.44a83.408 83.408 0 0 1-4.564 25.727l140.825 48.49c7.783-22.553 12.23-46.67 12.695-71.777m-1.778 1.716c-.603 23.17-4.635 45.975-11.998 67.843L456.895 401.98a85.125 85.125 0 0 0 4.057-22.864l145.488 2.382"/><path fill="red" d="M597.84 309.578c6.86 22.574 10.18 46.015 9.877 69.708l-146.97-2.69a83.226 83.226 0 0 0-3.45-24.262l140.543-42.756z"/><path fill="#FFF" d="M608.09 381.276c.548-25.273-2.918-49.67-9.772-72.59l-142.41 44.608a84.33 84.33 0 0 1 3.516 26.02l148.666 1.962zm-1.705-1.78L461.18 377.58a85.987 85.987 0 0 0-3.123-23.124l139.093-43.57c6.464 22.22 9.568 45.283 9.235 68.611z"/><path fill="red" d="M695.732 277.713c9.974 33.296 14.721 67.905 14.119 102.896l-62.028-.94c.476-28.413-3.381-56.513-11.466-83.558l59.375-18.398z"/><path fill="#FFF" d="M710.573 381.585c.73-36.073-4.282-70.904-14.153-103.636l-60.256 18.72c8 26.53 12.063 54.76 11.472 83.994l62.937.922zm-1.693-1.762l-59.491-.871c.385-27.581-3.34-54.86-11.08-81.132l56.958-17.698c9.549 32.277 14.127 65.801 13.613 99.7z"/><path fill="red" d="M633.435 464.613c9.082-26.59 13.988-54.361 14.585-82.585l61.906 1.046c-.718 34.752-6.757 68.958-17.96 101.693l-58.53-20.154z"/><path fill="#FFF" d="M710.896 382.35l-63.673-1.078c-.53 29.397-5.73 57.634-14.84 84.036l60.203 20.73c11.242-32.578 17.657-67.417 18.31-103.688m-1.779 1.716c-.79 34.08-6.712 67.62-17.613 99.752l-56.909-19.595c8.842-26.155 13.659-53.448 14.334-81.173l60.188 1.016"/><path fill="red" d="M414.898 392.538a39.21 39.21 0 0 1-5.69 10.227 40.026 40.026 0 0 1-8.515 8.15l-22.67-31.074 36.875 12.697z"/><path fill="#FFF" d="M410.97 403.532a44.303 44.303 0 0 0 6.47-12.234l-41.603-14.325 25.192 36.172a44.149 44.149 0 0 0 9.94-9.613m-1.86-1.406a41.665 41.665 0 0 1-7.537 7.705l-19.717-28.308 32.56 11.21a41.68 41.68 0 0 1-5.305 9.393"/><path fill="red" d="M403.549 413.212a44.495 44.495 0 0 0 9.176-9.049 44.467 44.467 0 0 0 6.184-11.302l35.08 12.08a81.489 81.489 0 0 1-29.144 38.616l-21.296-30.345z"/><path fill="#FFF" d="M442.225 426.58a86.063 86.063 0 0 0 12.416-23.53l-37.444-12.894a45.287 45.287 0 0 1-6.522 12.39 44.84 44.84 0 0 1-9.984 9.75l22.58 32.833a85.243 85.243 0 0 0 18.954-18.549m-1.855-1.414a82.922 82.922 0 0 1-16.526 16.64l-19.937-28.992a47.304 47.304 0 0 0 8.623-8.855 47.577 47.577 0 0 0 6.045-10.82l33.063 11.384a83.599 83.599 0 0 1-11.268 20.643"/><path fill="red" d="M728.81 500.626c-12.567 36.208-30.724 70.152-53.986 100.923l-30.132-22.49c20.893-27.656 37.21-58.159 48.514-90.692l35.604 12.26z"/><path fill="#FFF" d="M675.562 602.86c24.153-32.39 42.356-67.446 54.845-103.8l-36.723-12.644c-11.173 32.526-27.46 63.893-49.072 92.874l30.95 23.57zm-.439-3.25l-27.309-20.798c20.146-27.4 36.036-57.472 47.267-89.457l32.404 11.158c-12.42 35.44-30.024 68.755-52.362 99.096z"/><path fill="red" d="M570.058 651.448a331.54 331.54 0 0 0 74.428-70.922l30.055 22.42a368.056 368.056 0 0 1-82.823 78.922l-21.66-30.42z"/><path fill="#FFF" d="M674.017 601.398l-31.052-23.511c-21.55 28.735-46.852 52.97-74.685 72.583l22.264 32.051c31.107-21.92 59.388-49.008 83.473-81.123m-3.216.457c-22.64 29.806-49.432 55.845-79.69 77.45l-19.647-28.28c27.303-19.522 51.485-43.023 71.938-69.915l27.4 20.745"/><path fill="red" d="M510.133 567.473a228.592 228.592 0 0 0 50.938-48.455l29.975 22.333a264.989 264.989 0 0 1-59.305 56.408l-21.608-30.286z"/><path fill="#FFF" d="M593.315 540.905l-31.748-23.832c-15.127 19.997-32.918 36.844-52.51 50.453l22.833 32.4c22.915-15.92 43.728-35.63 61.425-59.021m-3.277.445c-16.383 21.276-35.739 39.876-57.587 55.336l-20.145-28.591a233.338 233.338 0 0 0 49.717-47.775l28.015 21.03"/><path fill="red" d="M631.747 466.147c-9.148 26.265-22.207 50.93-38.832 73.354L563.43 517.12c14.27-19.272 25.487-40.458 33.357-63.01l34.96 12.038z"/><path fill="#FFF" d="M592.675 539.419c17.495-23.455 30.68-48.837 39.723-75.163l-36.696-12.635a235.055 235.055 0 0 1-33.958 64.252l30.931 23.546zm-.44-3.25l-27.295-20.777a237.39 237.39 0 0 0 32.156-60.836l32.38 11.149c-8.887 25.176-21.405 48.859-37.242 70.464z"/><path fill="red" d="M425.185 445.595A83.262 83.262 0 0 0 442.84 428.6l117.472 88.361c-14.348 18.858-31.397 35.288-50.701 48.852l-84.426-120.218z"/><path fill="#FFF" d="M561.83 515.625l-118.36-89.981a84.33 84.33 0 0 1-18.79 18.34l84.757 122.828c19.513-13.842 37.264-30.934 52.392-51.187m-2.44.35c-14.1 18.59-30.744 34.854-49.517 48.382L427.089 444.39a85.987 85.987 0 0 0 16.698-16.3l115.604 87.885"/><path fill="red" d="M594.252 452.179c-7.686 22.102-18.757 42.833-32.913 61.643l-117.68-88.093a82.019 82.019 0 0 0 11.447-21.462l139.146 47.912z"/><path fill="#FFF" d="M561.01 516.882c15.091-20.071 26.435-41.814 34.187-64.377l-140.825-48.49a83.408 83.408 0 0 1-12.242 23.082l118.88 89.785zm-.344-2.447L444.553 426.74a85.125 85.125 0 0 0 10.88-20.514l137.547 47.361c-7.66 21.766-18.524 42.219-32.314 60.848z"/><path fill="red" d="M691.64 485.713c-11.325 32.693-27.625 63.363-48.456 91.192l-49.425-37.291c16.904-22.606 30.137-47.51 39.35-74.055l58.531 20.154z"/><path fill="#FFF" d="M643.503 578.072c21.816-28.984 38.21-60.386 49.408-92.98l-60.203-20.73c-9.075 26.415-22.363 51.867-40.043 75.359l50.838 38.351zm-.344-2.448l-48.055-36.253c16.537-22.264 29.544-46.736 38.68-72.79l56.908 19.595c-11.192 32.031-27.175 62.105-47.533 89.448z"/><path fill="red" d="M531.671 600.14c23.02-16.336 43.36-36.104 60.48-58.787l49.456 37.45c-21.068 27.945-46.115 52.291-74.474 72.39l-35.462-51.054z"/><path fill="#FFF" d="M642.777 578.477l-50.162-38.021c-17.533 23.4-38.114 43.143-60.75 59.122l35.956 51.851c27.93-19.715 53.323-44.077 74.956-72.952m-2.419.346c-20.465 27.03-44.713 50.629-72.109 70.184l-33.988-49.013c22.275-15.937 42.005-35.14 58.682-57.111l47.415 35.94"/><path fill="red" d="M400.835 411.88a42.525 42.525 0 0 1-11.122 5.144 43.088 43.088 0 0 1-12.18 1.78l.49-38.963 22.812 32.038z"/><path fill="#FFF" d="M389.268 418.342a44.117 44.117 0 0 0 12.483-6.052l-25.588-36.263-.671 44.19a44.428 44.428 0 0 0 13.776-1.875m-.694-2.24a41.918 41.918 0 0 1-10.691 1.759l.527-34.584 20.022 28.38a41.547 41.547 0 0 1-9.858 4.445"/><path fill="red" d="M376.37 421.5a43.935 43.935 0 0 0 12.607-1.961 44.26 44.26 0 0 0 11.533-5.515l20.939 30.134a80.878 80.878 0 0 1-21.85 10.579 80.346 80.346 0 0 1-23.955 3.606l.726-36.844z"/><path fill="#FFF" d="M400.832 456.501a83.5 83.5 0 0 0 23.532-11.595l-22.65-32.583a43.953 43.953 0 0 1-12.377 6.114 43.633 43.633 0 0 1-13.637 1.936l-.78 39.836a83.04 83.04 0 0 0 25.912-3.708m-.674-2.238a80.702 80.702 0 0 1-22.862 3.607l.687-35.174c4.1-.138 8.136-.813 12.03-2.02a46.163 46.163 0 0 0 11.09-5.136l19.998 28.774a81.176 81.176 0 0 1-20.943 9.949"/><path fill="red" d="M588.93 682.644c-31.445 21.69-66.049 38.36-102.89 49.561l-10.962-35.28c33.095-10.076 64.193-25.054 92.459-44.536l21.393 30.255z"/><path fill="#FFF" d="M485.36 735.144c38.602-11.802 73.901-29.337 105.29-51.351l-22.605-32.286c-28.085 19.699-59.669 35.386-94.207 45.947l11.522 37.69zm1.536-2.902l-10.167-33.258c32.424-10.153 62.926-25.029 90.742-44.252l19.948 28.488c-30.802 21.314-64.596 37.797-100.523 49.022z"/><path fill="red" d="M370.841 713.995c34.376.337 68.585-4.705 101.709-14.991l10.64 35.792c-36.863 11.458-74.928 17.072-113.183 16.682l.834-37.483z"/><path fill="#FFF" d="M485.128 735.31l-11.305-37.983c-34.484 10.822-69.353 15.69-103.543 15.226l-.876 39.775c38.212.518 77.185-4.923 115.724-17.018m-2.879-1.546c-36.004 11.056-73.146 16.52-110.482 16.25l.772-35.099c33.705.223 67.231-4.707 99.734-14.666l9.976 33.515"/><path fill="red" d="M372.455 611.018c23.5.18 46.886-3.29 69.545-10.316l10.564 35.675c-26.376 8.193-53.601 12.231-80.963 12.003l.854-37.362z"/><path fill="#FFF" d="M455.777 636.258l-11.475-37.936c-23.996 7.413-48.274 10.709-72.086 10.32l-.765 39.686c27.858.456 56.257-3.398 84.326-12.07m-2.9-1.554c-25.76 7.717-52.334 11.522-79.058 11.317l.674-35.02c23.07.147 46.01-3.137 68.257-9.769l10.127 33.472"/><path fill="red" d="M529.607 599.99c-22.64 15.734-47.512 27.864-73.97 36.079L444.79 600.59c22.72-7.07 44.087-17.488 63.54-30.987l21.276 30.387z"/><path fill="#FFF" d="M455.915 636.165c27.914-8.537 53.438-21.215 76.138-37.134l-22.542-32.194c-19.404 13.606-41.224 24.444-65.084 31.74l11.488 37.588zm1.533-2.896l-10.138-33.166c21.99-6.96 42.702-17.061 61.629-30.055l19.889 28.408c-21.903 15.081-45.895 26.782-71.38 34.813z"/><path fill="red" d="M375.274 461.54a83.362 83.362 0 0 0 24.266-3.43l42.75 140.532c-22.691 6.88-46.134 10.203-69.708 9.887l2.692-146.99z"/><path fill="#FFF" d="M443.577 597.972l-43.599-142.884a82.973 82.973 0 0 1-25.849 3.634l-2.658 149.424c23.825.424 48.112-2.822 72.106-10.174m-2.178-1.163c-22.199 6.62-45.11 9.851-68.153 9.615l2.596-145.943a84.836 84.836 0 0 0 22.973-3.229L441.4 596.81"/><path fill="red" d="M508.093 567.255c-19.5 13.564-40.936 24.017-63.74 31.084L401.15 457.037a84.164 84.164 0 0 0 22.182-10.83l84.76 121.048z"/><path fill="#FFF" d="M444.385 599.408c24.122-7.376 46.183-18.332 65.8-32.086L424.08 444.349a83.518 83.518 0 0 1-23.582 11.513l43.888 143.546zm1.163-2.195L402.68 457.01a85.186 85.186 0 0 0 20.959-10.233l84.103 120.11c-19.074 13.16-39.98 23.355-62.194 30.327z"/><path fill="red" d="M566.893 651.426c-28.255 19.706-59.337 34.865-92.411 45.07l-18.054-59.056c26.856-8.303 52.093-20.61 75.047-36.6l35.418 50.586z"/><path fill="#FFF" d="M473.413 697.186c34.712-10.614 66.455-26.38 94.682-46.18l-36.604-52.276c-22.878 16.045-48.603 28.822-76.736 37.426l18.658 61.03zm1.16-2.188l-17.638-57.688c26.49-8.282 51.411-20.436 74.126-36.15l34.598 49.414c-27.891 19.345-58.52 34.283-91.086 44.424z"/><path fill="red" d="M373.139 648.963c28.051.41 55.938-3.52 82.924-11.69l18.09 59.264c-33.226 10.08-67.572 14.923-102.112 14.394l1.098-61.968z"/><path fill="#FFF" d="M473.579 698.207l-18.387-61.234c-28.048 8.73-56.419 12.629-84.245 12.213l-1.318 64.088c34.333.518 69.34-4.297 103.95-15.067m-2.172-1.164c-32.574 9.955-66.196 14.83-100 14.497l1.244-60.58c27.508.237 54.867-3.73 81.378-11.798l17.378 57.881"/><path fill="red" d="M374.084 418.922a45.258 45.258 0 0 1-12.395-2.4 45.254 45.254 0 0 1-11.243-5.739l23.94-31.137-.302 39.276z"/><path fill="#FFF" d="M360.892 417.304a40.169 40.169 0 0 0 13 2.178l1.325-43.78-25.909 35.315a40.169 40.169 0 0 0 11.584 6.287m.759-2.202a37.873 37.873 0 0 1-9.166-4.634l20.278-27.64-1.037 34.265a37.873 37.873 0 0 1-10.075-1.991"/><path fill="red" d="M348.932 413.186a43.722 43.722 0 0 0 11.35 5.891 43.707 43.707 0 0 0 12.568 2.345l-.765 37.094a80.083 80.083 0 0 1-23.89-4.336 80.071 80.071 0 0 1-21.495-11.291l22.232-29.703z"/><path fill="#FFF" d="M349.613 454.668a80.85 80.85 0 0 0 25.454 4.402l.905-39.746a42.445 42.445 0 0 1-13.396-2.302 42.445 42.445 0 0 1-11.974-6.433l-23.757 31.877a80.85 80.85 0 0 0 22.768 12.202m.763-2.214a78.536 78.536 0 0 1-20.28-10.491l20.974-28.147a44.611 44.611 0 0 0 10.743 5.42 44.611 44.611 0 0 0 11.804 2.344l-.801 35.093a78.536 78.536 0 0 1-22.44-4.22"/><path fill="red" d="M368.728 750.849c-38.38-.584-76.306-7.175-112.762-19.601l12.261-35.61c32.761 11.153 66.842 17.078 101.333 17.612l-.832 37.599z"/><g transform="rotate(19 -1894.554 1151.444)"><mask id="b" fill="#fff"><use xlink:href="#a"/></mask><path fill="#FFF" d="M.099 55c40.328 0 79.176-6.353 115.596-18.053L103.525.01C70.94 10.478 36.182 16.162.1 16.162V55zm2.316-2.291V18.437c33.942-.228 67.43-5.458 99.624-15.556l10.736 32.593C77.12 46.684 40.019 52.478 2.415 52.709z" mask="url(#b)"/></g><path fill="red" d="M173.75 645.827c27.507 20.814 58.012 37.129 90.696 48.507l-12.262 35.612c-36.379-12.651-70.325-30.808-100.926-53.977l22.493-30.142z"/><g transform="rotate(19 -1836.554 804.85)"><mask id="d" fill="#fff"><use xlink:href="#c"/></mask><path fill="#FFF" d="M115.91 55V16.162c-36.082 0-70.84-5.684-103.427-16.152L.313 36.947C36.736 48.647 75.584 55 115.912 55m-2.317-2.291C75.99 52.478 38.89 46.684 3.234 35.474L13.972 2.88c32.192 10.1 65.68 15.33 99.622 15.557V52.71" mask="url(#d)"/></g><path fill="red" d="M235.691 564.566c19.166 14.21 40.355 25.427 63.011 33.351l-12.04 34.966c-26.384-9.21-51.05-22.267-73.354-38.83l22.383-29.487z"/><path fill="#FFF" d="M287.283 634.154l12.89-37.436c-23.405-8.059-44.641-19.617-63.373-33.886l-23.65 31.682c21.911 16.69 46.755 30.213 74.133 39.64m-1.407-2.96c-24.986-8.847-48.348-21.335-69.502-37.161l20.87-27.956c18.28 13.64 38.447 24.421 60.006 32.086l-11.374 33.031"/><path fill="red" d="M370.264 648.098c-27.772-.68-55.248-5.577-81.71-14.564l12.04-34.966c22.733 7.706 46.335 11.912 70.186 12.513l-.516 37.017z"/><path fill="#FFF" d="M287.283 634.154c27.377 9.427 55.28 14.066 82.822 14.404l.869-39.526c-23.546-.289-47.397-4.255-70.801-12.314l-12.89 37.436zm2.93-1.467l11.374-33.031c21.707 7.233 44.237 11.153 67.038 11.659l-.764 34.879c-26.414-.553-52.511-5.095-77.648-13.507z"/><path fill="red" d="M326.138 444.47a82.007 82.007 0 0 0 21.452 11.466l-47.905 139.126c-22.209-7.74-42.94-18.807-61.646-32.904l88.1-117.688z"/><path fill="#FFF" d="M300.305 596.333l48.483-140.803a83.484 83.484 0 0 1-23.072-12.263l-89.79 118.887c19.054 14.344 40.63 26.001 64.38 34.18m-1.083-2.22c-21.865-7.71-42.319-18.572-60.85-32.307l87.7-116.117a85.207 85.207 0 0 0 20.504 10.9l-47.354 137.524"/><path fill="red" d="M370.413 607.735c-23.42-.407-46.57-4.448-68.837-12.022l47.905-139.126a82.02 82.02 0 0 0 23.964 4.172l-3.032 146.976z"/><path fill="#FFF" d="M300.305 596.333c23.75 8.178 47.929 12.275 71.775 12.703l2.439-148.965a83.484 83.484 0 0 1-25.731-4.541l-48.483 140.803zm2.22-1.083l47.352-137.523a85.204 85.204 0 0 0 22.868 4.036l-2.38 145.492c-23.06-.585-45.863-4.619-67.84-12.005z"/><path fill="red" d="M369.734 711.068c-34.586-.69-68.787-6.733-101.691-17.966l20.156-58.537c26.723 9.109 54.496 14.014 82.583 14.59l-1.048 61.913z"/><path fill="#FFF" d="M266.772 693.721c34.305 11.813 69.235 17.722 103.685 18.318l1.08-63.68c-27.922-.483-56.231-5.273-84.034-14.846l-20.731 60.208zm2.22-1.084l19.598-56.913c26.284 8.866 53.577 13.69 81.172 14.342l-1.02 60.192c-33.915-.76-67.455-6.685-99.75-17.62z"/><path fill="red" d="M212.248 594.568c22.489 16.838 47.393 30.071 74.06 39.347l-20.156 58.535c-32.844-11.402-63.518-27.698-91.196-48.447l37.292-49.435z"/><path fill="#FFF" d="M266.772 693.721l20.731-60.208c-27.802-9.573-53.059-23.227-75.36-40.038L173.79 644.32c27.515 20.74 58.677 37.588 92.983 49.4m-1.083-2.221c-32.18-11.266-62.258-27.245-89.452-47.527l36.254-48.06c22.148 16.476 46.624 29.477 72.795 38.673L265.69 691.5"/><path fill="red" d="M348.747 408.892a43.163 43.163 0 0 1-8.502-8.9 42.585 42.585 0 0 1-5.597-10.902l37.702-11.203-23.603 31.005z"/><path fill="#FFF" d="M339.784 401.304a44.428 44.428 0 0 0 9.702 9.958l26.677-35.235-42.49 12.822a44.117 44.117 0 0 0 6.111 12.455m1.927-1.338a41.547 41.547 0 0 1-5.032-9.573l33.25-10.036-20.877 27.576a41.918 41.918 0 0 1-7.341-7.967"/><path fill="red" d="M333.584 390.98a44.214 44.214 0 0 0 5.692 11.448 43.928 43.928 0 0 0 8.728 9.304l-22.111 29.48a80.339 80.339 0 0 1-16.657-17.587 80.835 80.835 0 0 1-10.705-21.79l35.053-10.856z"/><path fill="#FFF" d="M307.178 424.254a83.04 83.04 0 0 0 18.137 18.875l23.91-31.872a43.633 43.633 0 0 1-9.554-9.92 43.953 43.953 0 0 1-5.99-12.439l-37.907 11.731a83.5 83.5 0 0 0 11.404 23.625m1.91-1.349a81.176 81.176 0 0 1-10.379-20.734l33.473-10.362a46.163 46.163 0 0 0 5.577 10.875 45.834 45.834 0 0 0 8.237 8.999l-21.113 28.14a80.702 80.702 0 0 1-15.795-16.918"/><path fill="red" d="M149.863 675.677c-30.385-23.243-56.928-51.103-78.92-82.828l30.42-21.655c19.771 28.5 43.623 53.533 70.92 74.432l-22.42 30.05z"/><path fill="#FFF" d="M69.1 592.06c22.923 33.258 50.284 61.54 80.715 84.658l23.797-31.883c-27.228-20.683-51.708-45.988-72.219-75.746L69.1 592.06zm3.221.554l28.495-20.268c19.481 27.86 42.865 52.385 69.562 72.96l-21 28.133c-29.589-22.773-55.492-49.946-77.057-80.825z"/><path fill="red" d="M54.267 475.656c10.278 32.754 25.56 63.704 45.44 92.019l-30.36 21.051c-22.135-31.506-39.14-65.946-50.565-102.4l35.485-10.67z"/><path fill="#FFF" d="M69.02 591.786l32.284-22.606c-20.715-29.586-35.945-61.392-45.949-94.207l-37.69 11.525c11.182 36.673 28.202 72.222 51.355 105.288m.576-3.232c-21.4-30.964-37.882-64.759-49.032-100.518l33.258-10.168c10.084 32.274 24.962 62.775 44.261 90.738l-28.487 19.948"/><path fill="red" d="M152.835 447.196c7.019 22.614 17.442 43.979 30.992 63.54l-30.388 21.278c-15.792-22.763-27.923-47.634-36.078-73.971l35.474-10.847z"/><path fill="#FFF" d="M153.16 531.918l32.194-22.546c-14.31-20.44-24.832-42.414-31.746-65.082l-37.583 11.491c8.086 26.52 20.395 52.225 37.135 76.137m.575-3.225c-15.138-22.019-26.84-46.01-34.815-71.38l33.163-10.14c6.915 21.891 17.016 42.603 30.06 61.626l-28.408 19.894"/><path fill="red" d="M211.135 593.127c-21.701-16.665-40.67-36.61-56.41-59.304l30.286-21.609c13.53 19.49 29.826 36.62 48.453 50.945l-22.33 29.968z"/><path fill="#FFF" d="M153.211 532.077c16.78 24.114 36.787 44.635 59.02 61.428l23.83-31.745c-19.004-14.354-36.106-31.898-50.451-52.513l-32.399 22.83zm3.243.56l28.587-20.141c13.448 18.922 29.503 35.634 47.774 49.72l-21.03 28.012c-21.186-16.291-39.782-35.65-55.331-57.59z"/><path fill="red" d="M295.786 402.29a84.051 84.051 0 0 0 10.812 22.19L185.56 509.23c-13.62-19.609-24.076-41.043-31.091-63.738l141.317-43.202z"/><path fill="#FFF" d="M184.876 510.052l122.96-86.096a83.518 83.518 0 0 1-11.495-23.59l-143.562 43.89c6.99 22.917 17.63 45.133 32.097 65.796m.434-2.446c-13.212-19.17-23.41-40.074-30.337-62.189l140.221-42.868a85.186 85.186 0 0 0 10.215 20.967l-120.099 84.09"/><path fill="red" d="M235.843 561.445c-18.771-14.264-35.197-31.315-48.844-50.706l120.208-84.422a83.217 83.217 0 0 0 17.01 17.642l-88.374 117.486z"/><path fill="#FFF" d="M186.396 509.418c14.382 20.565 31.522 38.076 50.558 52.41l89.9-119.384a82.973 82.973 0 0 1-18.133-18.778l-122.325 85.752zm2.433.424l119.476-83.755a84.836 84.836 0 0 0 16.116 16.688l-87.806 116.603c-18.304-14-34.369-30.652-47.786-49.536z"/><path fill="red" d="M173.223 642.473c-27.545-20.849-51.627-45.811-71.604-74.21l50.743-35.562c16.234 23.052 35.79 43.318 58.148 60.264l-37.287 49.508z"/><path fill="#FFF" d="M101.044 569.933c20.643 29.795 45.264 55.142 72.638 75.87l38.418-51.312c-22.184-16.804-42.14-37.343-58.868-61.49l-52.188 36.932zm2.428.42l49.33-34.912c15.923 22.68 35.04 42.65 56.863 59.398l-36.317 48.503c-26.842-20.548-50.336-45.09-69.876-72.989z"/><path fill="red" d="M115.368 457.563c8.244 26.731 20.553 51.97 36.603 75.043l-50.584 35.424c-19.782-28.407-34.94-59.488-45.074-92.411l59.055-18.056z"/><path fill="#FFF" d="M101.803 569.23l52.277-36.605c-16.872-24.1-29.277-50.007-37.428-76.735l-61.028 18.658c10.054 32.98 25.36 64.948 46.18 94.683m.432-2.439c-19.418-28.04-34.358-58.669-44.426-91.085l57.685-17.638c8.226 26.367 20.382 51.289 36.156 74.124l-49.415 34.599"/><path fill="red" d="M334.408 388.09a40.026 40.026 0 0 1-1.692-11.663c.02-3.92.631-7.803 1.813-11.563l36.875 12.698-36.996 10.529z"/><path fill="#FFF" d="M331.8 376.272a44.19 44.19 0 0 0 1.916 13.695l42.121-12.994-41.603-14.325a44.303 44.303 0 0 0-2.433 13.624m2.331.038a41.68 41.68 0 0 1 1.603-10.668l32.56 11.211-32.966 10.169a41.665 41.665 0 0 1-1.197-10.712"/><path fill="red" d="M332.115 362.975a44.48 44.48 0 0 0-2.086 12.714 44.458 44.458 0 0 0 1.66 12.78l-35.464 10.8a81.421 81.421 0 0 1-3.27-24.255 81.381 81.381 0 0 1 4.079-24.118l35.08 12.08z"/><path fill="#FFF" d="M292.981 375.191a85.243 85.243 0 0 0 3.517 26.286l38.007-11.97a44.84 44.84 0 0 1-1.864-13.83c.11-4.82.99-9.445 2.488-13.779l-37.444-12.893a86.063 86.063 0 0 0-4.704 26.186m2.333.029a83.599 83.599 0 0 1 3.83-23.205l33.063 11.384a47.577 47.577 0 0 0-1.9 12.249 47.304 47.304 0 0 0 1.345 12.287l-33.56 10.571a82.922 82.922 0 0 1-2.778-23.286"/><path fill="red" d="M18.008 484.324a368.078 368.078 0 0 1-16.677-113.18l37.488.834a331.447 331.447 0 0 0 14.986 101.71l-35.797 10.636z"/><path fill="#FFF" d="M.808 369.593C.015 409.728 5.623 448.486 16.64 484.91l37.277-11.55c-9.859-32.59-14.875-67.265-14.166-103.176l-38.944-.59zm2.252 2.34l34.363.522c-.439 33.783 4.148 67.19 13.644 99.382l-32.893 10.19C7.632 446.373 2.55 409.36 3.06 371.933z"/><path fill="red" d="M57.166 269.36c-11.122 32.597-17.043 66.68-17.606 101.336l-37.59-.83c.613-38.569 7.203-76.496 19.592-112.765l35.604 12.26z"/><path fill="#FFF" d="M.58 370.445l38.9.481c.813-36.142 7.29-70.887 18.51-103.397l-36.722-12.644C8.728 291.22 1.489 330.05.58 370.445m2.348-2.291c1.077-37.662 7.716-74.753 19.748-110.326l32.404 11.157c-10.842 32.12-16.834 65.598-17.828 99.593l-34.324-.424"/><path fill="red" d="M154.236 301.727c-7.682 22.616-11.886 46.217-12.507 70.189l-37.014-.516c.705-27.905 5.6-55.382 14.561-81.71l34.96 12.037z"/><path fill="#FFF" d="M104.01 371.157l38.87.489a235.055 235.055 0 0 1 12.798-71.538l-36.696-12.635c-9.082 26.312-14.319 54.431-14.973 83.684m2.349-2.29c.821-26.774 5.538-53.143 14.035-78.453l32.38 11.149a237.39 237.39 0 0 0-12.116 67.737l-34.3-.432"/><path fill="red" d="M117.054 454.97a264.989 264.989 0 0 1-12.005-80.961l37.37.855a228.592 228.592 0 0 0 10.308 69.544l-35.673 10.563z"/><path fill="#FFF" d="M103.536 372.26c-.456 29.329 3.81 57.673 12.067 84.326l37.94-11.474c-7.061-22.786-10.708-47.015-10.317-72.085l-39.69-.767zm2.308 2.37l35.024.674a233.338 233.338 0 0 0 9.764 68.256l-33.477 10.128c-7.699-25.634-11.5-52.207-11.311-79.059z"/><path fill="red" d="M296.57 349.679a81.986 81.986 0 0 0-4.194 23.959l-146.969-3.033c.424-23.54 4.464-46.688 12.015-68.838l139.148 47.912z"/><path fill="#FFF" d="M143.782 373.218l148.956 2.44a83.408 83.408 0 0 1 4.564-25.727l-140.825-48.49c-7.783 22.553-12.23 46.67-12.695 71.777m1.778-1.716c.603-23.17 4.635-45.975 11.998-67.843l137.547 47.361a85.125 85.125 0 0 0-4.057 22.864l-145.488-2.382"/><path fill="red" d="M154.16 443.422c-6.86-22.574-10.18-46.017-9.877-69.708l146.97 2.69a83.262 83.262 0 0 0 3.45 24.262L154.16 443.422z"/><path fill="#FFF" d="M143.91 371.724c-.548 25.273 2.918 49.67 9.772 72.59l142.41-44.608a84.33 84.33 0 0 1-3.516-26.02l-148.666-1.962zm1.706 1.778l145.204 1.919a85.987 85.987 0 0 0 3.123 23.124L154.85 442.113c-6.464-22.219-9.568-45.281-9.234-68.611z"/><path fill="red" d="M55.322 474.962c-9.973-33.297-14.72-67.905-14.118-102.896l62.027.939c-.476 28.413 3.382 56.514 11.467 83.559l-59.376 18.398z"/><path fill="#FFF" d="M40.482 371.09c-.73 36.073 4.281 70.904 14.152 103.635l60.257-18.722c-8-26.529-12.064-54.757-11.473-83.992l-62.936-.921zm1.693 1.762l59.49.87c-.385 27.582 3.34 54.86 11.081 81.133l-56.958 17.698c-9.549-32.277-14.127-65.802-13.613-99.701z"/><path fill="red" d="M118.565 288.387c-9.082 26.589-13.988 54.362-14.585 82.583l-61.906-1.044c.718-34.754 6.757-68.956 17.96-101.693l58.53 20.154z"/><path fill="#FFF" d="M41.104 370.65l63.673 1.078c.53-29.397 5.73-57.634 14.84-84.036l-60.203-20.73c-11.242 32.578-17.657 67.417-18.31 103.688m1.78-1.718c.79-34.08 6.71-67.619 17.612-99.75l56.909 19.595c-8.842 26.155-13.659 53.448-14.334 81.173l-60.188-1.018"/><path fill="red" d="M336.157 360.137a39.222 39.222 0 0 1 5.69-10.227 40.026 40.026 0 0 1 8.514-8.15l22.67 31.074-36.874-12.697z"/><path fill="#FFF" d="M341.03 349.468a44.303 44.303 0 0 0-6.47 12.234l41.603 14.325-25.192-36.172a44.149 44.149 0 0 0-9.94 9.613m1.86 1.406a41.62 41.62 0 0 1 7.537-7.705l19.717 28.308-32.56-11.21a41.68 41.68 0 0 1 5.305-9.393"/><path fill="red" d="M348.452 339.787a44.535 44.535 0 0 0-9.177 9.05 44.485 44.485 0 0 0-6.184 11.302l-35.08-12.08a81.447 81.447 0 0 1 29.144-38.616l21.297 30.344z"/><path fill="#FFF" d="M309.775 326.42a86.063 86.063 0 0 0-12.416 23.53l37.444 12.894a45.287 45.287 0 0 1 6.522-12.39 44.84 44.84 0 0 1 9.984-9.75l-22.58-32.833a85.243 85.243 0 0 0-18.954 18.549m1.855 1.414a82.922 82.922 0 0 1 16.526-16.64l19.937 28.992a47.304 47.304 0 0 0-8.623 8.855 47.558 47.558 0 0 0-6.045 10.82l-33.063-11.384a83.599 83.599 0 0 1 11.268-20.643"/><path fill="red" d="M23.19 252.374c12.567-36.208 30.724-70.152 53.986-100.923l30.132 22.49c-20.893 27.656-37.21 58.159-48.514 90.692l-35.604-12.26z"/><path fill="#FFF" d="M76.438 150.14c-24.153 32.39-42.356 67.446-54.845 103.8l36.723 12.644c11.174-32.528 27.46-63.893 49.072-92.874l-30.95-23.57zm.439 3.25l27.309 20.798c-20.146 27.4-36.036 57.472-47.267 89.457l-32.404-11.158c12.42-35.44 30.024-68.755 52.362-99.096z"/><path fill="red" d="M181.941 101.554a331.466 331.466 0 0 0-74.427 70.92l-30.055-22.42a368.059 368.059 0 0 1 82.823-78.922l21.66 30.422z"/><path fill="#FFF" d="M76.092 150.951l31.052 23.51c21.55-28.734 46.852-52.97 74.686-72.584l-22.265-32.05c-31.107 21.92-59.388 49.009-83.473 81.124m3.216-.457c22.64-29.806 49.432-55.845 79.69-77.45l19.647 28.28c-27.303 19.522-51.485 43.023-71.938 69.915l-27.4-20.745"/><path fill="red" d="M241.867 185.526a228.634 228.634 0 0 0-50.938 48.456l-29.975-22.331a264.999 264.999 0 0 1 59.305-56.41l21.608 30.285z"/><path fill="#FFF" d="M158.685 212.096l31.748 23.83c15.127-19.995 32.917-36.842 52.51-50.45l-22.833-32.401c-22.916 15.921-43.727 35.627-61.425 59.02m3.277-.445c16.383-21.275 35.738-39.874 57.586-55.334l20.146 28.589a233.344 233.344 0 0 0-49.717 47.775l-28.015-21.03"/><path fill="red" d="M120.253 286.853c9.148-26.265 22.207-50.93 38.832-73.354l29.485 22.382c-14.268 19.27-25.487 40.458-33.357 63.01l-34.96-12.038z"/><path fill="#FFF" d="M158.38 213.256c-17.496 23.454-30.68 48.837-39.724 75.162l36.697 12.636a235.055 235.055 0 0 1 33.957-64.252l-30.93-23.546zm.44 3.248l27.294 20.778a237.39 237.39 0 0 0-32.156 60.837l-32.379-11.15c8.886-25.176 21.404-48.859 37.242-70.465z"/><path fill="red" d="M326.815 307.405A83.262 83.262 0 0 0 309.16 324.4l-117.472-88.36c14.348-18.858 31.397-35.288 50.701-48.852l84.426 120.218z"/><path fill="#FFF" d="M190.17 237.375l118.359 89.981a84.33 84.33 0 0 1 18.79-18.34l-84.757-122.828c-19.513 13.842-37.264 30.934-52.392 51.187m2.44-.353c14.1-18.588 30.744-34.85 49.518-48.381l82.783 119.968a85.987 85.987 0 0 0-16.698 16.3L192.61 237.021"/><path fill="red" d="M157.748 300.821c7.686-22.102 18.757-42.833 32.913-61.643l117.68 88.093a82.019 82.019 0 0 0-11.447 21.462L157.748 300.82z"/><path fill="#FFF" d="M190.99 236.118c-15.091 20.071-26.435 41.814-34.187 64.377l140.825 48.49a83.408 83.408 0 0 1 12.242-23.082l-118.88-89.785zm.344 2.447l116.113 87.695a85.125 85.125 0 0 0-10.88 20.514L159.02 299.413c7.66-21.766 18.524-42.219 32.314-60.848z"/><path fill="red" d="M60.36 267.287c11.325-32.693 27.625-63.363 48.456-91.192l49.425 37.291c-16.904 22.606-30.138 47.513-39.35 74.055L60.36 267.287z"/><path fill="#FFF" d="M108.497 174.928c-21.816 28.984-38.21 60.386-49.408 92.98l60.203 20.73c9.075-26.415 22.363-51.867 40.043-75.359l-50.838-38.351zm.345 2.446l48.054 36.255c-16.537 22.264-29.544 46.736-38.68 72.79l-56.908-19.595c11.192-32.031 27.176-62.107 47.534-89.45z"/><path fill="red" d="M219.383 152.534c-23.019 16.335-43.36 36.105-60.48 58.787l-49.456-37.45c21.068-27.943 46.116-52.292 74.474-72.389l35.462 51.052z"/><path fill="#FFF" d="M108.277 174.198l50.162 38.02c17.533-23.4 38.115-43.144 60.752-59.124l-35.957-51.849c-27.93 19.716-53.324 44.077-74.957 72.953m2.42-.347c20.464-27.03 44.712-50.628 72.108-70.184l33.988 49.013c-22.275 15.938-42.005 35.14-58.681 57.112l-47.416-35.94"/><path fill="red" d="M351.166 341.12a42.643 42.643 0 0 1 11.122-5.145 43.164 43.164 0 0 1 12.18-1.779l-.49 38.963-22.812-32.04z"/><path fill="#FFF" d="M362.732 334.658a44.117 44.117 0 0 0-12.483 6.052l25.588 36.263.671-44.19a44.428 44.428 0 0 0-13.776 1.875m.694 2.24a41.827 41.827 0 0 1 10.691-1.759l-.527 34.584-20.022-28.38a41.547 41.547 0 0 1 9.858-4.445"/><path fill="red" d="M375.63 331.5a43.864 43.864 0 0 0-12.607 1.961 44.202 44.202 0 0 0-11.533 5.515l-20.939-30.134a80.878 80.878 0 0 1 21.85-10.579 80.28 80.28 0 0 1 23.955-3.606l-.726 36.844z"/><path fill="#FFF" d="M351.168 296.499a83.5 83.5 0 0 0-23.532 11.595l22.65 32.583a43.904 43.904 0 0 1 12.377-6.114 43.633 43.633 0 0 1 13.637-1.936l.78-39.836a82.977 82.977 0 0 0-25.912 3.708m.674 2.238a80.702 80.702 0 0 1 22.862-3.607l-.687 35.174c-4.1.138-8.136.813-12.03 2.02a46.222 46.222 0 0 0-11.09 5.133l-19.998-28.77a81.176 81.176 0 0 1 20.943-9.95"/><path fill="red" d="M162.125 70.029c31.445-21.69 66.048-38.359 102.889-49.56l10.963 35.28c-33.096 10.076-64.193 25.053-92.46 44.536L162.126 70.03z"/><path fill="#FFF" d="M266.64 17.856C228.038 29.66 192.739 47.194 161.35 69.21l22.605 32.284c28.085-19.697 59.668-35.385 94.207-45.946l-11.522-37.69zm-1.536 2.902l10.167 33.259c-32.425 10.153-62.927 25.03-90.743 44.253L164.58 69.782c30.802-21.315 64.596-37.796 100.524-49.024z"/><path fill="red" d="M381.159 39.005c-34.376-.337-68.585 4.705-101.709 14.991l-10.64-35.792c36.863-11.46 74.928-17.072 113.183-16.682l-.834 37.483z"/><path fill="#FFF" d="M266.872 17.69l11.305 37.983C312.66 44.85 347.53 39.983 381.72 40.447l.876-39.775c-38.212-.518-77.185 4.92-115.724 17.018m2.879 1.546c36.004-11.056 73.146-16.52 110.482-16.25l-.771 35.097c-33.706-.221-67.232 4.709-99.735 14.668l-9.976-33.515"/><path fill="red" d="M378.599 141.658c-23.5-.18-46.886 3.29-69.545 10.314l-10.564-35.673c26.377-8.196 53.6-12.23 80.964-12.005l-.855 37.364z"/><path fill="#FFF" d="M296.222 116.743l11.476 37.935c23.996-7.411 48.274-10.707 72.086-10.319l.765-39.687c-27.858-.455-56.258 3.399-84.327 12.07m2.9 1.555c25.762-7.72 52.334-11.523 79.059-11.318l-.674 35.022c-23.07-.148-46.011 3.137-68.258 9.771l-10.126-33.475"/><path fill="red" d="M222.393 153.01c22.64-15.734 47.513-27.866 73.97-36.079l10.846 35.479c-22.72 7.07-44.087 17.488-63.54 30.987l-21.276-30.387z"/><path fill="#FFF" d="M296.085 116.835c-27.913 8.535-53.438 21.215-76.138 37.134l22.542 32.194c19.404-13.606 41.225-24.446 65.085-31.743l-11.49-37.585zm-1.533 2.896l10.138 33.166c-21.99 6.96-42.702 17.061-61.629 30.055l-19.889-28.408c21.903-15.081 45.895-26.782 71.38-34.813z"/><path fill="red" d="M376.726 291.46a83.361 83.361 0 0 0-24.266 3.43l-42.749-140.534c22.691-6.88 46.133-10.203 69.707-9.885l-2.692 146.99z"/><path fill="#FFF" d="M308.423 155.026l43.599 142.886a83.035 83.035 0 0 1 25.849-3.634l2.658-149.424c-23.825-.424-48.111 2.82-72.106 10.172m2.178 1.163c22.199-6.618 45.11-9.851 68.154-9.615l-2.597 145.947a84.671 84.671 0 0 0-22.974 3.229l-42.583-139.56"/><path fill="red" d="M243.908 185.744c19.5-13.565 40.935-24.016 63.74-31.083l43.202 141.302a84.165 84.165 0 0 0-22.182 10.83l-84.76-121.05z"/><path fill="#FFF" d="M307.615 153.592c-24.122 7.375-46.182 18.331-65.8 32.088l86.106 122.97a83.527 83.527 0 0 1 23.583-11.514l-43.889-143.544zm-1.163 2.195l42.868 140.202a85.316 85.316 0 0 0-20.958 10.233l-84.104-120.109c19.074-13.158 39.979-23.352 62.194-30.326z"/><path fill="red" d="M185.108 101.572c28.254-19.705 59.336-34.862 92.41-45.068l18.054 59.055c-26.856 8.302-52.093 20.612-75.047 36.601l-35.417-50.588z"/><path fill="#FFF" d="M278.587 55.814c-34.712 10.614-66.455 26.38-94.681 46.178l36.603 52.278c22.878-16.045 48.604-28.824 76.736-37.426l-18.658-61.03zM277.427 58l17.638 57.69c-26.489 8.28-51.41 20.434-74.126 36.148l-34.597-49.414c27.89-19.346 58.52-34.281 91.085-44.424z"/><path fill="red" d="M378.861 104.037c-28.051-.41-55.938 3.52-82.924 11.69l-18.09-59.264c33.226-10.08 67.57-14.921 102.112-14.394l-1.098 61.968z"/><path fill="#FFF" d="M278.421 54.793l18.387 61.234c28.048-8.73 56.42-12.631 84.245-12.213l1.318-64.088c-34.333-.518-69.339 4.295-103.95 15.067m2.172 1.161c32.574-9.952 66.196-14.827 100-14.496l-1.243 60.58c-27.508-.237-54.867 3.73-81.378 11.798l-17.379-57.882"/><path fill="red" d="M376.97 333.752a45.258 45.258 0 0 1 12.395 2.401 45.254 45.254 0 0 1 11.243 5.738l-23.94 31.137.302-39.276z"/><path fill="#FFF" d="M389.217 335.044a40.169 40.169 0 0 0-13-2.177l-1.325 43.78 25.909-35.315a40.169 40.169 0 0 0-11.584-6.288m-.759 2.203a37.873 37.873 0 0 1 9.165 4.634l-20.276 27.637 1.036-34.262c3.459.208 6.837.876 10.075 1.99"/><path fill="red" d="M401.177 339.163a43.722 43.722 0 0 0-11.35-5.891 43.707 43.707 0 0 0-12.568-2.345l.765-37.094a80.083 80.083 0 0 1 23.89 4.336 80.071 80.071 0 0 1 21.495 11.291l-22.232 29.703z"/><path fill="#FFF" d="M403.332 298.658a80.85 80.85 0 0 0-25.453-4.403l-.906 39.747c4.456.048 8.968.776 13.397 2.301a42.445 42.445 0 0 1 11.973 6.434l23.757-31.878a80.85 80.85 0 0 0-22.768-12.201m-.762 2.214a78.536 78.536 0 0 1 20.28 10.49l-20.974 28.148a44.611 44.611 0 0 0-10.744-5.421 44.611 44.611 0 0 0-11.803-2.343l.8-35.093a78.536 78.536 0 0 1 22.44 4.219"/><path fill="red" d="M383.272 2.152c38.38.583 76.306 7.174 112.762 19.6l-12.262 35.612C451.012 46.21 416.931 40.286 382.44 39.75l.832-37.598z"/><path fill="#FFF" d="M498.25 21.458C459.988 8.282 421.059 1.599 382.693.764l-.48 38.907c34.327.747 69.157 6.727 103.392 18.515l12.647-36.728zm-2.943 1.41l-11.159 32.408c-32.28-10.873-65.756-16.869-99.59-17.835l.426-34.329c37.48 1.044 74.57 7.687 110.323 19.756z"/><path fill="red" d="M578.25 107.173c-27.507-20.812-58.013-37.127-90.696-48.507l12.262-35.612c36.378 12.653 70.325 30.808 100.925 53.979l-22.492 30.14z"/><path fill="#FFF" d="M498.25 21.458l-12.646 36.728c34.236 11.789 65.363 28.52 92.874 49.065l23.575-30.955c-30.747-22.963-65.538-41.663-103.802-54.838m1.451 2.923c35.605 12.502 68.922 30.102 99.1 52.354l-20.8 27.315c-27.257-20.07-57.328-35.956-89.458-47.26l11.158-32.409"/><path fill="red" d="M516.309 188.434c-19.166-14.211-40.355-25.426-63.011-33.351l12.04-34.966c26.384 9.21 51.05 22.265 73.355 38.828l-22.384 29.489z"/><path fill="#FFF" d="M464.717 118.846l-12.89 37.436c23.405 8.059 44.641 19.617 63.373 33.886l23.65-31.682c-21.911-16.69-46.755-30.213-74.133-39.64m1.408 2.958c24.986 8.847 48.347 21.337 69.501 37.163l-20.87 27.956a227.817 227.817 0 0 0-60.006-32.086l11.375-33.033"/><path fill="red" d="M381.737 104.9c27.772.68 55.247 5.579 81.71 14.566l-12.04 34.965c-22.734-7.703-46.336-11.911-70.187-12.512l.517-37.019z"/><path fill="#FFF" d="M464.717 118.846c-27.377-9.427-55.28-14.066-82.822-14.404l-.869 39.526c23.546.289 47.397 4.255 70.801 12.314l12.89-37.436zm-2.93 1.464l-11.374 33.034a227.817 227.817 0 0 0-67.038-11.659l.764-34.879c26.414.553 52.512 5.093 77.649 13.504z"/><path fill="red" d="M425.862 308.53a82.008 82.008 0 0 0-21.452-11.466l47.905-139.126c22.208 7.743 42.94 18.809 61.645 32.906L425.862 308.53z"/><path fill="#FFF" d="M451.695 156.667L403.212 297.47a83.484 83.484 0 0 1 23.072 12.263l89.79-118.887c-19.054-14.344-40.63-26.001-64.38-34.18m1.083 2.22c21.865 7.71 42.32 18.57 60.85 32.305l-87.699 116.117a85.204 85.204 0 0 0-20.505-10.898l47.354-137.524"/><path fill="red" d="M381.587 145.265c23.42.405 46.57 4.448 68.837 12.022l-47.905 139.126a82.02 82.02 0 0 0-23.964-4.172l3.032-146.976z"/><path fill="#FFF" d="M451.695 156.667c-23.75-8.178-47.929-12.275-71.775-12.703l-2.44 148.966a83.484 83.484 0 0 1 25.731 4.541l48.483-140.803zm-2.22 1.083l-47.352 137.523a85.204 85.204 0 0 0-22.868-4.036l2.381-145.495c23.059.586 45.862 4.622 67.84 12.008z"/><path fill="red" d="M382.266 41.932c34.587.689 68.787 6.733 101.691 17.966l-20.156 58.538c-26.723-9.108-54.496-14.015-82.583-14.592l1.048-61.912z"/><path fill="#FFF" d="M485.228 59.279c-34.305-11.813-69.235-17.722-103.685-18.318l-1.08 63.68c27.922.483 56.231 5.273 84.034 14.846l20.731-60.208zm-2.22 1.084l-19.597 56.911c-26.285-8.866-53.578-13.688-81.173-14.34l1.02-60.194c33.915.762 67.455 6.687 99.75 17.623z"/><path fill="red" d="M539.752 158.432c-22.489-16.838-47.393-30.071-74.06-39.347l20.156-58.535c32.844 11.402 63.518 27.698 91.195 48.45l-37.291 49.432z"/><path fill="#FFF" d="M485.228 59.279l-20.731 60.208c27.802 9.573 53.059 23.227 75.36 40.038l38.354-50.846c-27.515-20.74-58.677-37.588-92.983-49.4m1.083 2.221c32.18 11.266 62.258 27.245 89.453 47.525l-36.255 48.062c-22.148-16.476-46.623-29.48-72.795-38.675L486.311 61.5"/></g></svg>