<svg xmlns="http://www.w3.org/2000/svg" xmlns:xlink="http://www.w3.org/1999/xlink" width="451" height="90"><defs><path id="a" d="M27.423 1.588c-.544.55-.738 1.452-.738 1.452v9.102l.002.002-25.894 26.4a2.531 2.531 0 0 0 .014 3.551 2.457 2.457 0 0 0 3.508-.014l25.9-26.41h9.183c.583-.037.93-.273.93-.273l.614-.616A43.548 43.548 0 0 0 28.946.047l-1.523 1.541z"/><linearGradient id="b" x1="28.309%" x2="60.797%" y1="40.941%" y2="72.358%"><stop offset="0%" stop-color="#FF6B20"/><stop offset="100%" stop-color="#FF2B00"/></linearGradient><path id="d" d="M0 43.544C0 67.543 19.232 87 42.957 87s42.957-19.457 42.957-43.456a43.79 43.79 0 0 0-2.84-15.567L83 28.03c-.382.259-1.44.877-2.972.976a3.714 3.714 0 0 1-.262.008h-7.454L47.65 54.148a6.52 6.52 0 0 1-4.692 1.98 6.521 6.521 0 0 1-4.653-1.94 6.672 6.672 0 0 1-1.956-4.721 6.681 6.681 0 0 1 1.919-4.735l24.667-25.137v-7.371c0-.3.031-.598.095-.89.105-.493.553-2.2 1.853-3.514l1.012-1.024A42.38 42.38 0 0 0 42.957.087C19.232.087 0 19.542 0 43.544"/><path id="f" d="M40.409.561l-13.168 13.32c-.54.547-.733 1.443-.733 1.443v9.037l.002.002L.787 50.576A2.512 2.512 0 0 0 .8 54.1a2.44 2.44 0 0 0 1.736.723c.634 0 1.266-.245 1.75-.737l25.729-26.222h9.122c.579-.037.924-.272.924-.272l13.245-13.244c.643-.613.691-1.525.693-1.743v-.047c-.156-2.065-2.116-2.416-2.116-2.416l-7.855-.04V2.001s-.078-.972-1.31-1.595a2.184 2.184 0 0 0-.997-.242c-.763 0-1.313.397-1.313.397"/><linearGradient id="g" x1="50%" x2="50%" y1="0%" y2="100%"><stop offset="0%" stop-color="#F5515F"/><stop offset="100%" stop-color="#9F041B"/></linearGradient></defs><g fill="none" fill-rule="evenodd"><path fill="#000E1D" d="M134.24 42.64c0 2.219-.475 4.187-1.424 5.904-.95 1.717-2.315 3.056-4.096 4.016-1.781.96-3.877 1.44-6.288 1.44h-8.544V31.376h8.544c2.432 0 4.533.47 6.304 1.408 1.77.939 3.13 2.261 4.08 3.968.95 1.707 1.424 3.67 1.424 5.888zm-12.288 6.464c2.133 0 3.792-.565 4.976-1.696 1.184-1.13 1.776-2.72 1.776-4.768 0-2.048-.592-3.637-1.776-4.768-1.184-1.13-2.843-1.696-4.976-1.696h-2.592v12.928h2.592zm29.408.768h-8.48L141.472 54h-5.76L144 31.536h6.304L158.592 54h-5.824l-1.408-4.128zm-1.408-4.16l-2.816-8.32-2.848 8.32h5.664zM172.32 54l-4.896-8.544h-1.248V54h-5.472V31.376h9.344c1.792 0 3.307.31 4.544.928 1.237.619 2.165 1.467 2.784 2.544.619 1.077.928 2.31.928 3.696 0 1.643-.453 3.04-1.36 4.192-.907 1.152-2.224 1.941-3.952 2.368L178.368 54h-6.048zm-6.144-12.288h3.392c1.088 0 1.888-.24 2.4-.72s.768-1.19.768-2.128c0-.896-.261-1.6-.784-2.112s-1.317-.768-2.384-.768h-3.392v5.728zm31.136-10.336v4.352h-6.144V54h-5.504V35.728h-6.08v-4.352h17.728zm18.56 16.256a6.238 6.238 0 0 1-.912 3.296c-.608 1.003-1.504 1.803-2.688 2.4-1.184.597-2.619.896-4.304.896-2.539 0-4.63-.619-6.272-1.856-1.643-1.237-2.539-2.965-2.688-5.184h5.824c.085.853.39 1.525.912 2.016.523.49 1.19.736 2 .736.704 0 1.259-.192 1.664-.576.405-.384.608-.896.608-1.536 0-.576-.187-1.056-.56-1.44a4.39 4.39 0 0 0-1.392-.944 31.863 31.863 0 0 0-2.304-.88c-1.43-.49-2.597-.965-3.504-1.424-.907-.459-1.685-1.141-2.336-2.048-.65-.907-.976-2.085-.976-3.536 0-1.344.341-2.507 1.024-3.488.683-.981 1.627-1.733 2.832-2.256 1.205-.523 2.587-.784 4.144-.784 2.517 0 4.517.597 6 1.792 1.483 1.195 2.32 2.837 2.512 4.928h-5.92c-.107-.747-.379-1.339-.816-1.776-.437-.437-1.03-.656-1.776-.656-.64 0-1.157.17-1.552.512-.395.341-.592.843-.592 1.504 0 .533.176.987.528 1.36.352.373.795.677 1.328.912s1.301.533 2.304.896c1.45.49 2.635.976 3.552 1.456.917.48 1.707 1.179 2.368 2.096.661.917.992 2.112.992 3.584zm34.88-16.096V54h-5.472V39.952L240.416 54h-4.736l-4.896-14.08V54h-5.472V31.536H232l6.112 15.648 5.984-15.648h6.656zm17.792 18.336h-8.48L258.656 54h-5.76l8.288-22.464h6.304L275.776 54h-5.824l-1.408-4.128zm-1.408-4.16l-2.816-8.32-2.848 8.32h5.664zm27.008-14.336v4.352H288V54h-5.504V35.728h-6.08v-4.352h17.728zm12.64-.224c2.88 0 5.264.757 7.152 2.272 1.888 1.515 3.11 3.563 3.664 6.144h-5.792c-.427-1.045-1.083-1.867-1.968-2.464s-1.936-.896-3.152-.896c-1.6 0-2.89.587-3.872 1.76-.981 1.173-1.472 2.741-1.472 4.704 0 1.963.49 3.525 1.472 4.688.981 1.163 2.272 1.744 3.872 1.744 1.216 0 2.267-.299 3.152-.896.885-.597 1.541-1.408 1.968-2.432h5.792c-.555 2.56-1.776 4.603-3.664 6.128-1.888 1.525-4.272 2.288-7.152 2.288-2.197 0-4.128-.485-5.792-1.456-1.664-.97-2.95-2.33-3.856-4.08-.907-1.75-1.36-3.744-1.36-5.984 0-2.24.453-4.235 1.36-5.984.907-1.75 2.192-3.11 3.856-4.08 1.664-.97 3.595-1.456 5.792-1.456zm33.44.224V54h-5.504v-9.44h-8.576V54h-5.472V31.376h5.472v8.768h8.576v-8.768h5.504zm23.744 10.976c1.365.32 2.448.981 3.248 1.984.8 1.003 1.2 2.165 1.2 3.488 0 1.941-.645 3.456-1.936 4.544-1.29 1.088-3.141 1.632-5.552 1.632H350.4V31.376h10.272c2.304 0 4.085.501 5.344 1.504 1.259 1.003 1.888 2.432 1.888 4.288 0 1.365-.363 2.501-1.088 3.408-.725.907-1.675 1.499-2.848 1.776zm-8.096-1.728h3.584c1.899 0 2.848-.81 2.848-2.432 0-1.621-.97-2.432-2.912-2.432h-3.52v4.864zm3.904 8.928c2.027 0 3.04-.832 3.04-2.496 0-.81-.267-1.445-.8-1.904-.533-.459-1.29-.688-2.272-.688h-3.872v5.088h3.904zm16.992-18.176V54h-5.472V31.376h5.472zM400.64 54h-5.472l-9.152-13.888V54h-5.472V31.376h5.472l9.152 14.016V31.376h5.472V54zm14.368-22.848c2.837 0 5.173.693 7.008 2.08s2.976 3.264 3.424 5.632h-5.792a4.466 4.466 0 0 0-1.76-1.936c-.79-.48-1.739-.72-2.848-.72-1.728 0-3.115.581-4.16 1.744s-1.568 2.736-1.568 4.72c0 2.155.55 3.808 1.648 4.96 1.099 1.152 2.661 1.728 4.688 1.728 1.301 0 2.443-.357 3.424-1.072.981-.715 1.675-1.733 2.08-3.056h-6.912v-3.936h11.488v5.408c-.427 1.323-1.11 2.55-2.048 3.68-.939 1.13-2.139 2.048-3.6 2.752-1.461.704-3.13 1.056-5.008 1.056-2.283 0-4.277-.485-5.984-1.456a9.974 9.974 0 0 1-3.952-4.08c-.928-1.75-1.392-3.744-1.392-5.984 0-2.24.464-4.235 1.392-5.984.928-1.75 2.24-3.11 3.936-4.08 1.696-.97 3.675-1.456 5.936-1.456zm24.544-.128c2.133 0 4.07.496 5.808 1.488a10.84 10.84 0 0 1 4.112 4.128c1.003 1.76 1.504 3.75 1.504 5.968 0 2.219-.507 4.213-1.52 5.984-1.013 1.77-2.39 3.152-4.128 4.144-1.739.992-3.664 1.488-5.776 1.488-2.112 0-4.037-.496-5.776-1.488-1.739-.992-3.115-2.373-4.128-4.144-1.013-1.77-1.52-3.765-1.52-5.984s.507-4.208 1.52-5.968a10.956 10.956 0 0 1 4.128-4.128c1.739-.992 3.664-1.488 5.776-1.488zm0 5.088c-1.792 0-3.216.581-4.272 1.744s-1.584 2.747-1.584 4.752c0 1.984.528 3.563 1.584 4.736 1.056 1.173 2.48 1.76 4.272 1.76 1.77 0 3.19-.587 4.256-1.76 1.067-1.173 1.6-2.752 1.6-4.736s-.528-3.563-1.584-4.736c-1.056-1.173-2.48-1.76-4.272-1.76z"/><g transform="translate(41 12)"><mask id="c" fill="#fff"><use xlink:href="#a"/></mask><path fill="url(#b)" d="M27.423 1.588c-.544.55-.738 1.452-.738 1.452v9.102l.002.002-25.894 26.4a2.531 2.531 0 0 0 .014 3.551 2.457 2.457 0 0 0 3.508-.014l25.9-26.41h9.183c.583-.037.93-.273.93-.273l.614-.616A43.548 43.548 0 0 0 28.946.047l-1.523 1.541z" mask="url(#c)"/></g><g transform="translate(0 3)"><mask id="e" fill="#fff"><use xlink:href="#d"/></mask><path fill="#1A9E00" d="M0 43.544C0 67.543 19.232 87 42.957 87s42.957-19.457 42.957-43.456a43.79 43.79 0 0 0-2.84-15.567L83 28.03c-.382.259-1.44.877-2.972.976a3.714 3.714 0 0 1-.262.008h-7.454L47.65 54.148a6.52 6.52 0 0 1-4.692 1.98 6.521 6.521 0 0 1-4.653-1.94 6.672 6.672 0 0 1-1.956-4.721 6.681 6.681 0 0 1 1.919-4.735l24.667-25.137v-7.371c0-.3.031-.598.095-.89.105-.493.553-2.2 1.853-3.514l1.012-1.024A42.38 42.38 0 0 0 42.957.087C19.232.087 0 19.542 0 43.544" mask="url(#e)"/></g><path fill="#FFF" d="M53.945 57.733c0-1.899-.622-3.386-1.865-4.46-1.244-1.075-3.01-1.613-5.297-1.613h-9.026v11.92h9.1c4.725 0 7.088-1.95 7.088-5.847zM37.757 42.665h8.355c4.426 0 6.64-1.899 6.64-5.698 0-3.797-2.264-5.697-6.79-5.697h-8.205v11.395zm26.445 8.696C66.067 53.71 67 56.434 67 59.53c0 4.55-1.505 8.097-4.513 10.646C59.477 72.726 55.163 74 49.543 74H25V21h23.947c5.371 0 9.523 1.175 12.458 3.523 2.934 2.35 4.401 5.698 4.401 10.046 0 3.198-.846 5.86-2.536 7.983-1.691 2.125-3.905 3.512-6.64 4.16 3.183.75 5.707 2.3 7.572 4.649z"/><g transform="translate(41)"><mask id="h" fill="#fff"><use xlink:href="#f"/></mask><path fill="url(#g)" d="M40.409.561l-13.168 13.32c-.54.547-.733 1.443-.733 1.443v9.037l.002.002L.787 50.576A2.512 2.512 0 0 0 .8 54.1a2.44 2.44 0 0 0 1.736.723c.634 0 1.266-.245 1.75-.737l25.729-26.222h9.122c.579-.037.924-.272.924-.272l13.245-13.244c.643-.613.691-1.525.693-1.743v-.047c-.156-2.065-2.116-2.416-2.116-2.416l-7.855-.04V2.001s-.078-.972-1.31-1.595a2.184 2.184 0 0 0-.997-.242c-.763 0-1.313.397-1.313.397" mask="url(#h)"/></g></g></svg>