<svg xmlns="http://www.w3.org/2000/svg" width="65" height="65"><defs><radialGradient id="a" r="47.315%" fx="50%" fy="50%"><stop offset="0%" stop-color="#5161F5"/><stop offset="100%" stop-color="#6B00E7"/></radialGradient></defs><g fill="none" fill-rule="evenodd"><circle cx="32.5" cy="32.5" r="32.5" fill="url(#a)"/><path fill="#FFF" fill-rule="nonzero" d="M21.64 25.12c0-1.333.393-2.62 1.18-3.86.787-1.24 1.973-2.26 3.56-3.06 1.587-.8 3.527-1.2 5.82-1.2s4.233.4 5.82 1.2c1.587.8 2.773 1.82 3.56 3.06.787 1.24 1.18 2.527 1.18 3.86 0 1.413-.3 2.62-.9 3.62-.6 1-1.433 1.807-2.5 2.42 2.693 1.573 4.04 3.933 4.04 7.08 0 2.027-.507 3.747-1.52 5.16-1.013 1.413-2.373 2.48-4.08 3.2-1.707.72-3.573 1.08-5.6 1.08-2.027 0-3.893-.36-5.6-1.08-1.707-.72-3.067-1.787-4.08-3.2-1.013-1.413-1.52-3.133-1.52-5.16 0-3.147 1.347-5.507 4.04-7.08-1.067-.613-1.9-1.42-2.5-2.42-.6-1-.9-2.207-.9-3.62zm8.72 1.52c0 .773.173 1.36.52 1.76.347.4.787.6 1.32.6s.973-.2 1.32-.6c.347-.4.52-.987.52-1.76 0-.747-.173-1.34-.52-1.78-.347-.44-.787-.66-1.32-.66s-.973.22-1.32.66c-.347.44-.52 1.033-.52 1.78zm-.76 11.08c0 .8.227 1.453.68 1.96.453.507 1.093.76 1.92.76s1.467-.253 1.92-.76c.453-.507.68-1.16.68-1.96s-.233-1.46-.7-1.98c-.467-.52-1.1-.78-1.9-.78-.8 0-1.433.26-1.9.78-.467.52-.7 1.18-.7 1.98z"/></g></svg>