<svg xmlns="http://www.w3.org/2000/svg" width="65" height="65"><defs><radialGradient id="a" r="47.315%" fx="50%" fy="50%"><stop offset="0%" stop-color="#5161F5"/><stop offset="100%" stop-color="#6B00E7"/></radialGradient></defs><g fill="none" fill-rule="evenodd"><circle cx="32.5" cy="32.5" r="32.5" fill="url(#a)"/><path fill="#FFF" fill-rule="nonzero" d="M41.645 25.8h-11.6v3.36c.506-.453 1.166-.813 1.98-1.08.813-.267 1.726-.4 2.74-.4 1.813 0 3.346.427 4.6 1.28 1.253.853 2.186 1.993 2.8 3.42.613 1.427.92 3.007.92 4.74 0 3.2-.9 5.687-2.7 7.46-1.8 1.773-4.274 2.66-7.42 2.66-2.294 0-4.274-.4-5.94-1.2-1.667-.8-2.934-1.907-3.8-3.32-.867-1.413-1.274-3.027-1.22-4.84h8.64c0 .427.146.827.44 1.2.293.373.773.56 1.44.56.666 0 1.16-.24 1.48-.72.32-.48.48-1.133.48-1.96 0-.773-.18-1.36-.54-1.76-.36-.4-.874-.6-1.54-.6-.56 0-.987.133-1.28.4-.294.267-.44.573-.44.92h-8.64V18h19.6v7.8z"/></g></svg>