<svg xmlns="http://www.w3.org/2000/svg" width="65" height="65"><defs><radialGradient id="a" r="48.43%" fx="50%" fy="50%"><stop offset="0%" stop-color="#F5D951"/><stop offset="100%" stop-color="#E7A400"/></radialGradient></defs><g fill="none" fill-rule="evenodd"><circle cx="32.5" cy="32.5" r="32.5" fill="url(#a)"/><path fill="#FFF" fill-rule="nonzero" d="M34.52 26.4c-.16-.8-.393-1.387-.7-1.76-.307-.373-.78-.56-1.42-.56-1.013 0-1.687.513-2.02 1.54-.333 1.027-.5 2.62-.5 4.78.48-.747 1.173-1.333 2.08-1.76.907-.427 1.933-.64 3.08-.64 2.56 0 4.607.787 6.14 2.36 1.533 1.573 2.3 3.853 2.3 6.84 0 2-.42 3.74-1.26 5.22-.84 1.48-2.033 2.62-3.58 3.42-1.547.8-3.373 1.2-5.48 1.2-4.187 0-7.093-1.287-8.72-3.86C22.813 40.607 22 37 22 32.36c0-3.627.373-6.56 1.12-8.8.747-2.24 1.927-3.893 3.54-4.96 1.613-1.067 3.713-1.6 6.3-1.6 3.173 0 5.567.907 7.18 2.72 1.613 1.813 2.5 4.04 2.66 6.68h-8.28zm-4.04 10.68c0 .8.207 1.393.62 1.78.413.387.993.58 1.74.58s1.327-.193 1.74-.58c.413-.387.62-.98.62-1.78 0-.72-.213-1.28-.64-1.68-.427-.4-1-.6-1.72-.6s-1.293.2-1.72.6c-.427.4-.64.96-.64 1.68z"/></g></svg>