<svg xmlns="http://www.w3.org/2000/svg" width="65" height="66"><defs><radialGradient id="a" r="48.43%" fx="50%" fy="50%"><stop offset="0%" stop-color="#F5D951"/><stop offset="100%" stop-color="#E7A400"/></radialGradient></defs><g fill="none" fill-rule="evenodd" transform="translate(0 .63)"><circle cx="32.5" cy="32.5" r="32.5" fill="url(#a)"/><path fill="#FFF" d="M32.82 18.12c2.107 0 3.907.36 5.4 1.08 1.493.72 2.62 1.693 3.38 2.92.76 1.227 1.14 2.613 1.14 4.16 0 1.867-.44 3.327-1.32 4.38-.88 1.053-1.867 1.767-2.96 2.14v.16c3.2 1.2 4.8 3.427 4.8 6.68 0 1.707-.4 3.213-1.2 4.52-.8 1.307-1.94 2.32-3.42 3.04-1.48.72-3.233 1.08-5.26 1.08-3.467 0-6.187-.827-8.16-2.48-1.973-1.653-2.987-4.24-3.04-7.76h8.64c-.053.96.087 1.687.42 2.18.333.493.913.74 1.74.74.48 0 .88-.18 1.2-.54.32-.36.48-.833.48-1.42 0-.747-.247-1.313-.74-1.7s-1.327-.58-2.5-.58h-1.48v-7.16h1.44c1.813.107 2.72-.613 2.72-2.16 0-.667-.14-1.16-.42-1.48-.28-.32-.633-.48-1.06-.48-.987 0-1.48.827-1.48 2.48H22.5c.08-3.173 1.007-5.6 2.78-7.28 1.773-1.68 4.287-2.52 7.54-2.52z"/></g></svg>