<svg xmlns="http://www.w3.org/2000/svg" width="65" height="66"><defs><radialGradient id="a" fx="50%" fy="50%"><stop offset="0%" stop-color="#51F56D"/><stop offset="100%" stop-color="#259F04"/></radialGradient></defs><g fill="none" fill-rule="evenodd" transform="translate(0 .63)"><circle cx="32.5" cy="32.5" r="32.5" fill="url(#a)"/><path fill="#FFF" d="M22.8 40.92c3.493-2.64 6.26-4.987 8.3-7.04 2.04-2.053 3.06-3.893 3.06-5.52 0-1.333-.467-2-1.4-2-.533 0-.913.233-1.14.7-.227.467-.34 1.34-.34 2.62h-8.6c.08-2.48.62-4.52 1.62-6.12 1-1.6 2.3-2.773 3.9-3.52 1.6-.747 3.36-1.12 5.28-1.12 3.36 0 5.82.827 7.38 2.48 1.56 1.653 2.34 3.68 2.34 6.08 0 2.533-.84 4.92-2.52 7.16-1.68 2.24-3.8 4.173-6.36 5.8h9.16v7.16H22.8v-6.68z"/></g></svg>